<svg width="60" height="60" viewBox="0 0 60 60" fill="none" xmlns="http://www.w3.org/2000/svg">
<rect width="60" height="60" fill="#D0D7DE"/>
<path d="M23.75 37.5C23.4167 37.5 23.125 37.375 22.875 37.125C22.625 36.875 22.5 36.5833 22.5 36.25V23.75C22.5 23.4167 22.625 23.125 22.875 22.875C23.125 22.625 23.4167 22.5 23.75 22.5H36.25C36.5833 22.5 36.875 22.625 37.125 22.875C37.375 23.125 37.5 23.4167 37.5 23.75V36.25C37.5 36.5833 37.375 36.875 37.125 37.125C36.875 37.375 36.5833 37.5 36.25 37.5H23.75ZM23.75 36.25H36.25V23.75H23.75V36.25ZM24.9167 34.2292H35.1042L32.0417 30.1458L29.2917 33.7083L27.3542 31.0625L24.9167 34.2292Z" fill="white"/>
</svg>
