<svg width="55" height="16" viewBox="0 0 55 16" fill="none" xmlns="http://www.w3.org/2000/svg">
<path d="M10.448 12.412V14.842C9.8 14.752 9.17 14.716 7.892 14.716H2.564C1.556 14.716 0.926 14.734 0.278 14.77C0.386 14.104 0.422 13.438 0.422 12.394V3.052C0.422 1.81 0.386 1.162 0.278 0.387999H2.996C2.888 1.126 2.852 1.72 2.852 3.034V12.538H7.892C9.116 12.538 9.692 12.502 10.448 12.412ZM18.0724 0.0999998C20.0524 0.0999998 21.5824 0.676 22.8064 1.9C24.1204 3.214 24.8224 5.176 24.8224 7.516C24.8224 12.07 22.1764 15.022 18.0904 15.022C14.0044 15.022 11.3764 12.088 11.3764 7.516C11.3764 5.194 12.0964 3.196 13.4284 1.9C14.6704 0.676 16.1644 0.0999998 18.0724 0.0999998ZM18.1264 12.88C20.7004 12.88 22.3024 10.828 22.3024 7.516C22.3024 5.698 21.7984 4.24 20.8804 3.322C20.1424 2.602 19.1884 2.224 18.1084 2.224C15.5164 2.224 13.8784 4.276 13.8784 7.534C13.8784 9.334 14.4004 10.846 15.3364 11.782C16.0744 12.502 17.0284 12.88 18.1264 12.88ZM38.6624 9.136V11.026C38.6624 12.088 38.6804 12.574 38.7884 13.366C37.5104 14.068 36.8624 14.356 35.9084 14.608C35.0984 14.824 34.1444 14.95 33.2624 14.95C31.0124 14.95 29.2844 14.248 28.1504 12.88C27.0524 11.584 26.4584 9.64 26.4584 7.408C26.4584 4.546 27.4664 2.35 29.3384 1.09C30.4544 0.352 31.6784 0.0279996 33.3344 0.0279996C34.9724 0.0279996 36.4664 0.585999 37.4744 1.576C38.1044 2.188 38.4284 2.71 38.8064 3.718L36.3404 4.384C35.7464 2.746 34.8824 2.17 33.0284 2.17C31.9664 2.17 30.9764 2.566 30.2924 3.268C29.3924 4.204 28.9604 5.536 28.9604 7.372C28.9604 9.226 29.3744 10.63 30.1844 11.584C30.9224 12.448 31.8944 12.826 33.3164 12.826C34.5404 12.826 35.4584 12.592 36.3764 12.016V9.082H35.4044C34.4864 9.082 34.1084 9.1 33.5684 9.19V6.868C34.2164 6.958 34.6124 6.976 35.7284 6.976H36.6644C37.4924 6.976 38.0144 6.958 38.7884 6.904C38.6984 7.57 38.6624 8.128 38.6624 9.136ZM47.3751 0.0999998C49.3551 0.0999998 50.8851 0.676 52.1091 1.9C53.4231 3.214 54.1251 5.176 54.1251 7.516C54.1251 12.07 51.4791 15.022 47.3931 15.022C43.3071 15.022 40.6791 12.088 40.6791 7.516C40.6791 5.194 41.3991 3.196 42.7311 1.9C43.9731 0.676 45.4671 0.0999998 47.3751 0.0999998ZM47.4291 12.88C50.0031 12.88 51.6051 10.828 51.6051 7.516C51.6051 5.698 51.1011 4.24 50.1831 3.322C49.4451 2.602 48.4911 2.224 47.4111 2.224C44.8191 2.224 43.1811 4.276 43.1811 7.534C43.1811 9.334 43.7031 10.846 44.6391 11.782C45.3771 12.502 46.3311 12.88 47.4291 12.88Z" fill="#32383F"/>
</svg>
